<?xml version="1.0" encoding="utf-8"?>
<!-- Generator: Adobe Illustrator 27.4.1, SVG Export Plug-In . SVG Version: 6.00 Build 0)  -->
<svg version="1.1" id="_x32_" xmlns="http://www.w3.org/2000/svg" xmlns:xlink="http://www.w3.org/1999/xlink" x="0px" y="0px"
	 viewBox="0 0 512 512" style="enable-background:new 0 0 512 512;" xml:space="preserve">
<style type="text/css">
	.st0{fill:#FFC224;}
	.st1{fill:#FFBD1F;}
	.st2{fill:#FFD133;}
	.st3{fill:#FFD638;}
	.st4{fill:#FFE36E;}
	.st5{fill:#FFB81C;}
	.st6{fill:#FFB31C;}
	.st7{fill:#FBA91C;}
	.st8{fill:#FFAE1C;}
</style>
<g>
	<g>
		<g>
			<g>
				<path class="st0" d="M502.5,350.7v17.7c-0.4,11.2-8.3,21.7-20.7,23.9C316.5,422.2,77.3,442.1,14.3,447c-2.9,0.2-4.9-2.2-4.9-4.6
					v-23.1c0-0.2,0-0.4,0-0.7v0.7c8.1-4.2,13.7-12.7,13.7-22.5c0-7.8-3.5-14.7-9-19.4c-2.8-2.3-4.3-5.8-4.3-9.4
					c0.3-31.6,0.8-66.1,1.5-66.6l256.8-136.7c5.2-3.9,11.8-5.6,18.2-4.7c35.2,4.6,151.5-44.7,211.4,38.4
					c3.1,4.2,4.6,115.8,4.7,145.3C502.5,347.6,502.5,350.1,502.5,350.7z"/>
				<path class="st0" d="M502.5,195.3v154.4c-0.4,11.2-8.3,21.7-20.7,23.9c-165.3,29.9-404.6,49.8-467.5,54.7
					c-3,0.2-4.9-2.2-4.9-4.6v-0.1c0-2.5,1.3-4.9,3.3-6.4c6.3-4.6,10.4-12.1,10.4-20.5c0-9.7-5.4-18.1-13.4-22.4
					c-0.1-0.1-0.2-0.1-0.3-0.2v-88c0-1.3,0.6-2.6,1.8-3.5l256.8-136.7c5.2-3.9,11.8-5.6,18.2-4.7c35.2,4.6,151.5-44.7,211.4,38.4
					C501.2,184.5,502.7,190,502.5,195.3z"/>
				<g>
					<path class="st1" d="M480.6,208.9C369.6,229,229,250.1,127.5,267.7C77.9,276.3,35,289.4,14.3,291c-3,0.2-4.9-2.2-4.9-4.6v16.2
						c0,2.4,1.9,4.8,4.9,4.6c62.9-4.9,302.2-41.7,467.5-71.7c12.4-2.2,20.3-12.7,20.7-23.9v-16.2C502.1,206.6,493,206.7,480.6,208.9
						z"/>
				</g>
				<path class="st2" d="M502.5,195.3c-0.2,6.8-4.2,11.7-10.7,13.5c-8.5,2.3-14.1,4.1-20.5,7.3c-12.3,6.2-17.2,8-31.6,10.3
					C158.6,264.6,83.9,280,14.3,290.9c-2.9,0.2-4.9-2.2-4.9-4.6c0-1.3,1.8-3.5,1.8-3.5c13-13.6,29-28.6,46-43.8
					c1-0.9,2.4-1.3,3.8-0.9c1.2,0.4,2.4,0.6,3.7,0.7c4.5,0.3,9-1.2,14.7-4.4c1.6-1.3,3.1-2.6,4.5-4c2.3-3.1,3.1-6.9,3.1-10.3
					c0-1.3-0.1-2.5-0.4-3.6c-0.3-1.7,0.3-3.5,1.6-4.6c53.3-45.4,106-85.7,106-85.7c0.6-0.4,1.7-1.3,3-2.4c4.1-3.3,21-17.6,24-21.9
					c10.6-15.4,24.1-25.2,31.3-29.9c1.7-1.1,3.5-2.1,5.3-3l4.4-2.1c6.4-3,13.3-1.9,19.7-1.1c35.2,4.6,155.8,30.8,215.7,113.9
					C501.2,184.5,502.7,190,502.5,195.3z"/>
			</g>
			<path class="st3" d="M256,78.2c5.4-4,16.2-13.1,27.9-8.2c11.7,4.8,29.5,2.7,37.8,8.2c8.2,5.5,5.5,5.5,30.2,13.1
				c24.7,7.6,60.4,16.5,75.5,31.6s38.5,30.2,42.6,35c4.1,4.8,19.9,21.3,21.3,26.1c1.4,4.8,0,16.5-13.7,17.2
				c-13.7,0.7-20.6,7.6-26.1,5.5c-5.5-2.1-4.8-8.2-10.3-14.4c-5.5-6.2-7.5-3.1-19.2-14.3c-11.7-11.1-15.1-16.6-15.1-16.6
				s-11-8.9-15.8-9.6c-4.8-0.7-9.6,5.5-17.2-4.8c-7.5-10.3-22-20.6-25.4-21.3c-3.4-0.7-14.4-4.8-19.9-6.9c-5.5-2.1-19.2-11-19.2-11
				s-14.4-2.1-19.2-3.4c-4.8-1.4-11-2.1-17.9-4.1c-6.9-2.1-9.8-4.8-16.2-6.2C249.6,92.6,250.4,82.3,256,78.2z"/>
			<g>
				<path class="st4" d="M26.1,286.4c16.9-2.8,33.8-5.8,50.8-8.8c16.9-2.9,33.9-5.8,50.8-8.6c33.9-5.6,67.9-10.9,101.9-16.1
					c66.5-9.9,133.2-19.1,199.9-27.8c3.4-0.4,10.8-0.3,10.2,1.2c1,1.3-6.1,3.4-9.5,3.9c-66.6,9.5-133.1,19.1-199.6,29.1
					c-34,5.1-67.9,10.3-101.9,15.7l-50.9,8.2c-17,2.8-33.9,5.6-50.9,8.2c-3.4,0.5-13.1,0.9-12.5-0.6C13.4,289.6,22.7,287,26.1,286.4
					z"/>
			</g>
			<path class="st4" d="M85.5,234.4c0,7-17.5,9-22.5,13c-5,4-13,11-13,11c-7,8-15.5,15-20,18.5c-4.5,3.5,0-6,0-6
				c3-3.7,17.7-17.1,31.3-29c1-0.9,4.7-1.4,6-1.4C71,240.3,80.6,237.1,85.5,234.4z"/>
			<path class="st4" d="M227,108.6c-4.8,4.5-8.3,9.5-8.3,9.5c-6,5.5-7.5,7.5-10.5,9.5c-3,2-3.5,2.5-7.5,5.5c-4,3,1.5-1.5-8.5,8
				c-10,9.5-12,11-12,11l-9.5,7c0,0-5.7,3.8-9.5,6.5c-10.5,7.5-12,10.4-15,12.2c-3,1.8-9,8.8-9,8.8l-12.5,8.6c0,0-9,5.4-12,8.5
				c-3,3-13.5,10-13.5,10s-5.5,20.5-17.3,25.6c2.3-3.1,10.1-12,9.5-22.8c11.8-9.8,32-27.4,36.3-31.4c5.5-5,41.6-32.6,41.6-32.6
				s26.6-22.1,35.1-28.1C212.7,118.6,231.9,104.1,227,108.6z"/>
			<path class="st3" d="M176.5,177.9c0.2-0.5,0.8-0.8,1.3-1.2c7.8-7.2,20.8-19.6,32.1-20c11.9-0.5,15.7,0.5,31-4.3
				c3.1-1,5.9-1.8,8.4-2.5c7-2,14.6-1.5,21.2,1.6c4.1,1.9,9.7,3.4,16.7,2.3c14.8-2.4,15.3,2.4,10,6.7c-5.2,4.3,0,6.2-11,10.5
				s-13.4,5.7-20.5,9.1c-7.2,3.3-19.6,10-19.6,10s-1,3.3-11,0.5c-10-2.9-8.6-4.8-16.2-6.7c-7.6-1.9-14.3,1.9-23.4,1.9
				C186.5,185.8,175,182.9,176.5,177.9z"/>
			<path class="st3" d="M155.8,229.6c-13.9-11.5-6.6-19.7,12.3-22.5s19.7,6.1,37.7,0s23.7,0.4,21.3,6.2c-2.4,5.7-4.9,11.5-13.9,16.4
				c-9,4.9-13.7,13.9-36.8,16.4C153.3,248.4,155.8,229.6,155.8,229.6z"/>
			<path class="st3" d="M91.8,251.3c-9-2,9.8-14.3,20.5-20.1c10.7-5.7,6.4,3.3,15.5,8.2s5.7,7.3,0,11.8
				C122.2,255.8,91.8,251.3,91.8,251.3z"/>
			<path class="st3" d="M279.5,219.7c-7.4-12.8,13.9-24.4,13.9-24.4s28.7-15,42.6-12.5s19.7,7.8,29.5,12.5
				c9.8,4.7,26.9,13.7,6.1,18.6c-20.8,4.9-32.3,5.7-32.3,5.7S282.8,225.4,279.5,219.7z"/>
			<path class="st3" d="M251.5,131c-13.8-3.9-8.3-12.9,4.5-14.5c12.8-1.6,7.3,1.6,21.9,6.6c14.7,4.9,13,9,5.6,11.5
				C276.2,136.9,251.5,131,251.5,131z"/>
			<path class="st1" d="M481.8,235.5c0,0,6.5-4.1,9.9,2.9s2.3,33.2,2.3,33.2s1,60.2,0.2,83c-0.8,22.8-7.4,17.7-7.4,17.7
				s12.6,7.5,14.2-3.2c1.6-10.7,1.6-12.5,1.6-12.5l-0.4-141.8l-16.8,10.1L481.8,235.5z"/>
			<path class="st4" d="M277.9,79.9c-9-1.1-4.7-7.9,6-10c10.7-2.1,28.2,2.9,34.4,6.6s50.8,14.1,63.2,21c12.3,6.9,17.7,9.8,12.6,10.3
				c-5.1,0.5-12.6-2.9-12.6-2.9s-17.4-4-23-7.4s-21.1-6.2-29.8-8.5c-8.7-2.3-18.2-5.4-28.4-5.5C290,83.3,277.9,79.9,277.9,79.9z"/>
			<path class="st4" d="M432,136.5c-8.7-4.9-16.7-12.1-19.3-16c-2.6-3.9,3.8-6.8,9.3-2.2s9.1,7.9,16.6,12.8
				c7.5,4.8,10.1,5.5,8.5,9.1C445.4,143.7,439,140.5,432,136.5z"/>
			<path class="st1" d="M45.8,341.1c-8.9-5.3,1.9-14.6,9.7-14.6s9.7,1.9,23.4,0s14.4-7.8,32.5-7.8s32.7,5.8,22,7.8
				c-10.7,2-11.8,6.8-22,7.3c-10.1,0.5-16,9.3-29.6,7.3C68.2,339.2,55.5,347,45.8,341.1z"/>
			<path class="st1" d="M176.3,348.9c-17.9,1.5-2.9-11.7,6.8-13.6c9.7-1.9,38.2-15.6,35.1-4.3C218.3,331,211.4,346,176.3,348.9z"/>
			<path class="st1" d="M289.1,318.7c-18.3-3.1-0.4-19.3,11.1-20.4c11.6-1.1,19.9-6,34.3-7.5s18.2,1.7,5.6,7.5
				c-12.7,5.7-9.7,2.9-19.5,10.2C310.8,315.8,306.3,321.6,289.1,318.7z"/>
			<path class="st1" d="M51.6,402.6c-20.4-5.1,3.9-19.5,3.9-19.5h39c-6.8,16.6,2.9,17.5-12.7,19.5C66.3,404.5,67.2,406.5,51.6,402.6
				z"/>
			<path class="st1" d="M168,387.9c20.1-1.6,41.5,0.3,20.1,6S165.8,410,156,404.8C146.2,399.6,162.6,388.4,168,387.9z"/>
			<path class="st1" d="M127.8,367.5c-14.7-1.7,0-9.1,0-9.1s32-6.5,31-2.6C157.8,359.7,144.6,369.4,127.8,367.5z"/>
			<path class="st1" d="M256,374.8c-10.8-5.8-15.8-14.2,0-13.7c15.8,0.5,19.1-2.5,25.2,0c6.2,2.5,9.4,14.2,0,13.7
				C271.9,374.3,262,378,256,374.8z"/>
			<path class="st1" d="M238.3,298.4c-9.1-2.7-4.3-10.8,13.2-11.8c17.5-1,23.8,5.8,14.8,8.3C257.2,297.3,242.8,299.7,238.3,298.4z"
				/>
			<path class="st1" d="M329.7,360.1c-13.1-1.4-15.2-13.6,0-16.8c15.2-3.2,38.6-16.7,35.7-5.5C362.5,348.9,342.7,361.5,329.7,360.1z
				"/>
			<path class="st1" d="M309.9,383.1c-11.2-3.8,6.5-8.7,19.8-8.3c13.3,0.5,32.5,6.3,18,8.3S321.5,387,309.9,383.1z"/>
			<path class="st1" d="M407.3,286.5c-12.8-5.4-5.1-13.6,4.8-14.5c9.8-1,26-13.6,27.7-3.9C441.4,277.8,412.8,288.8,407.3,286.5z"/>
			<path class="st1" d="M412.1,322.6c-12.6-1,7.1-18.3,17.7-15.5c10.6,2.8,29.6,2.6,17.7,7.6c-11.9,5-10.8,4-17.7,7.9
				C422.9,326.5,412.1,322.6,412.1,322.6z"/>
			<path class="st1" d="M408,367.7c-20.4-0.9-12.9-9.6,0-13.2c12.9-3.6,21.9-2.2,21.8,0C429.7,356.7,413.6,368,408,367.7z"/>
			<path class="st1" d="M463.8,349.1c-6.2,2.8-5.7-5.8-4.1-11.2c1.8-5.7,5-8.2,8.9-4.3C468.7,333.5,483.3,340.4,463.8,349.1z"/>
			<path class="st1" d="M457.7,294.8c-3.8-0.3-0.7-6.8,3-9c1.7-1,3.6-1.2,5.1,0.7C473.6,296.3,461.5,295.1,457.7,294.8z"/>
			<path class="st5" d="M502.5,358.4v10c-0.4,11.2-8.3,21.7-20.7,23.9C316.5,422.2,77.3,442.1,14.3,447c-2.9,0.2-4.9-2.2-4.9-4.6
				v-0.9c9.3,1.9,24.4,0.2,37.9-1c15.4-1.3,106.2-11.6,116.2-12.2c10-0.5,203-21.9,213-23.6c10-1.7,96.6-19.1,105.2-17.4
				c8.6,1.7,19.8-9,19.1-18.4C500.6,365.3,501.2,361.4,502.5,358.4z"/>
			<path class="st0" d="M19.5,307.2c2.8-3.5,7.9-4.1,15.8-5.2s12.4-1.9,23.1-3.2s15.2-0.4,15.2-0.4l15.9-3.3l10.1-0.2l28.3-8
				c0,0,5.5,1.2,17.9,0c12.4-1.2,13.2-0.9,27-1.7s10.4-3.8,20.4-5c10-1.2,38.6-4.2,45-4.5c6.4-0.3,35.9-10.5,43-11.2
				c7.1-0.7,67.6-12.2,79.8-11.1c12.2,1.1,52.4-11.7,59.2-12c6.8-0.2,42-6.5,42-6.5s24.8-1.1,30,0c5.2,1.1-7.7,6.5-7.7,6.5
				s-416.3,72.1-442,74.3C16.7,317.7,19.5,307.2,19.5,307.2z"/>
			<path class="st0" d="M19.1,435c-5.1-3.2-7.7-6.3,0-6.7c7.7-0.4,13.9-1.3,18.9-1.7c5-0.4,16.7-2.9,25.4-3.8
				c8.8-0.8,19.6-0.8,19.6-0.8s7.8-0.4,19.2,0.4s28.9-0.8,28.9-0.8l17.1-3.8c0,0,5.7,0,12-1.3c6.3-1.3,14.4-2.9,14.4-2.9
				s55.3-7.6,63.4-7.6c8.1,0.1,8.5,0.4,15.6,0c7.1-0.4,8.3,2.4,16.5,0s14.4-6.8,20.2-5.9c5.8,1,10,2,17.1,0c7.1-2,7.9-1.3,16.7-2.9
				c8.8-1.6,20.8-2.8,20.8-2.8s37.1-8,38.4-8c11.7,0.1,27,1.2,38.4,0c11.4-1.2,31.6-6.9,31.6-6.9s15.4,0,23.2-1.6
				c7.8-1.5,14.8-1.1,9.8,0c-5,1.1-7.5,4.5-15.8,5.5c-8.3,1-22.2,5.3-30.9,5.3c-8.7-0.1-12.3,1.7-17.8,2.1
				c-5.5,0.4-167.7,23.7-176,24.1s-99.2,10.4-105.9,10.4c-6.7,0-99.6,7.9-106.3,9.6S19.1,435,19.1,435z"/>
		</g>
		<g>
			<path class="st0" d="M166.3,225.7c-12.7,3.1-21.3,1.1-21.3,1.1c-2.9-0.9-5.2-2.1-7-3.5c-8.5-7-4.5-19.5,6.9-24.9
				c13.8-6.5,31.5-2.3,35.8,5.5c0.9,1.6,1.4,3.4,1.5,5.2C182.7,215.5,178,222.8,166.3,225.7z"/>
			<path class="st5" d="M182.3,209c-7.6-9-20.9-6.5-31-2.1c-7.7,3.3-14.7,10.4-13.3,16.3c-8.5-7-4.5-19.5,6.9-24.9
				c13.8-6.5,31.5-2.3,35.8,5.5C181.6,205.4,182.2,207.2,182.3,209z"/>
		</g>
		<g>
			<path class="st0" d="M319.3,226.7c-16,1.3-26-2.8-26-2.8c-3.4-1.6-6-3.5-7.8-5.6c-9-10.1-1.7-24.6,13.3-28.9
				c18.1-5.2,38.7,3.4,42.4,13.6c0.8,2.1,1.1,4.3,0.8,6.6C341.3,217.6,334.1,225.5,319.3,226.7z"/>
			<path class="st5" d="M342,209.6c-7.4-12.4-24.1-11.9-37.2-8.6c-9.9,2.5-19.9,9.7-19.3,17.3c-9-10.1-1.7-24.6,13.3-28.9
				c18.1-5.2,38.7,3.4,42.4,13.6C341.9,205.1,342.2,207.3,342,209.6z"/>
		</g>
		<g>
			<path class="st0" d="M277.1,123.4c-10.4,3.2-17.6,1.9-17.6,1.9c-2.5-0.6-4.4-1.5-6-2.6c-7.4-5.4-4.7-16,4.6-21
				c11.2-6.1,26.1-3.4,30,2.9c0.8,1.3,1.3,2.7,1.5,4.2C290.3,114.2,286.7,120.5,277.1,123.4z"/>
			<path class="st5" d="M289.7,108.8c-6.7-7.1-17.7-4.4-25.9-0.3c-6.2,3.1-11.7,9.3-10.3,14.2c-7.4-5.4-4.7-16,4.6-21
				c11.2-6.1,26.1-3.4,30,2.9C289,105.8,289.5,107.3,289.7,108.8z"/>
		</g>
		<g>
			<path class="st0" d="M425.8,194.8c-10.3,2-17.2,0.1-17.2,0.1c-2.3-0.8-4.1-1.8-5.5-3.1c-6.6-5.8-3-15.7,6.5-19.5
				c11.4-4.7,25.5-0.7,28.7,5.6c0.7,1.3,1,2.7,1,4.2C439.4,187.4,435.3,193,425.8,194.8z"/>
			<path class="st5" d="M439.3,182.2c-5.8-7.4-16.6-5.9-24.9-2.8c-6.3,2.3-12.2,7.7-11.3,12.5c-6.6-5.8-3-15.7,6.5-19.5
				c11.4-4.7,25.5-0.7,28.7,5.6C438.9,179.3,439.3,180.7,439.3,182.2z"/>
		</g>
		<g>
			<path class="st6" d="M255.1,367.5c-7.9,10.9-23.4,9.4-30.1,4.4c-3.2-2.4-5.9-5.3-7.8-8.6c-5.1-8.5-5.2-19.2,4.4-26.7
				c13.3-10.5,31.9-12.4,38,0c0.3,0.7,0.6,1.3,0.9,1.9C265.3,349.9,262.6,357.2,255.1,367.5z"/>
			<path class="st7" d="M259.5,336.6c0.3,0.7,0.6,1.3,0.9,1.9c-5.8-2.7-13.7-4.3-22.1-1.3c-13.9,5-21.1,15.5-21.1,26.1
				c-5.1-8.5-5.2-19.2,4.4-26.7C234.9,326.2,253.5,324.2,259.5,336.6z"/>
		</g>
		<g>
			<path class="st6" d="M100.5,334.3c-6.8,9.5-21.9,14.2-30.9,8.4c-3.8-2.5-6.7-5.3-8.8-8.4c0,0,0,0,0,0c0,0,0,0,0,0
				c-0.7-1.1-1.4-2.1-1.9-3.2c-5.3-10.8-1.7-23.1,6.2-30.3c10.9-10,28.9-9.3,37.3,2.7c1.5,2.1,2.6,4.2,3.3,6.2
				C109.2,318.9,105.7,327.1,100.5,334.3z"/>
			<path class="st7" d="M105.6,309.6c-5.5-2.8-15.7-5.9-27-3.7c-13.3,2.7-22.8,16.3-19.7,25.1c-5.3-10.8-1.7-23.1,6.2-30.3
				c10.9-10,28.9-9.3,37.3,2.7C103.8,305.5,104.9,307.6,105.6,309.6z"/>
		</g>
		<g>
			<path class="st6" d="M462.8,366.6c-5.6,7.7-17.8,11.6-25.1,6.8c-3.1-2-5.5-4.3-7.2-6.8c0,0,0,0,0,0c0,0,0,0,0,0
				c-0.6-0.9-1.1-1.7-1.5-2.6c-4.3-8.8-1.4-18.8,5-24.6c8.9-8.1,23.5-7.6,30.3,2.2c1.2,1.7,2.1,3.4,2.7,5
				C469.8,354.1,467,360.7,462.8,366.6z"/>
			<path class="st7" d="M466.9,346.5c-4.4-2.3-12.8-4.8-22-3c-10.8,2.2-18.5,13.2-16,20.4c-4.3-8.8-1.4-18.8,5-24.6
				c8.9-8.1,23.5-7.6,30.3,2.2C465.4,343.2,466.3,344.8,466.9,346.5z"/>
		</g>
		<g>
			<path class="st6" d="M375.9,303c0,16.5-20.4,25.8-34.9,16.5c-2.9-1.9-4.9-5.3-5.9-9.3c-2.3-9.8,1.4-23.1,12.9-27.1
				c9.7-3.4,19.2,1,24.2,8.4C374.6,294.8,375.9,298.8,375.9,303z"/>
			<path class="st7" d="M372.3,291.5c-3.4-0.8-8.5-0.5-18.1,0c-10.9,0.6-17.4,10-19,18.7c-2.3-9.8,1.4-23.1,12.9-27.1
				C357.8,279.7,367.3,284.1,372.3,291.5z"/>
		</g>
		<g>
			<path class="st6" d="M149.6,391.9c0,12.8-15.9,20.1-27.2,12.8c-2.3-1.5-3.8-4.1-4.6-7.2c-1.8-7.6,1.1-18,10.1-21.1
				c7.6-2.6,14.9,0.8,18.8,6.5C148.5,385.5,149.6,388.6,149.6,391.9z"/>
			<path class="st7" d="M146.7,382.9c-2.6-0.6-6.6-0.4-14.1,0c-8.5,0.5-13.5,7.8-14.8,14.6c-1.8-7.6,1.1-18,10.1-21.1
				C135.5,373.7,142.9,377.2,146.7,382.9z"/>
		</g>
	</g>
	<path class="st8" d="M9.5,418.6v0.7c0,0,0,0,0,0C9.5,419.2,9.5,418.9,9.5,418.6z"/>
</g>
</svg>
