<?xml version="1.0" encoding="utf-8"?>
<!-- Generator: Adobe Illustrator 27.4.1, SVG Export Plug-In . SVG Version: 6.00 Build 0)  -->
<svg version="1.1" id="_x32_" xmlns="http://www.w3.org/2000/svg" xmlns:xlink="http://www.w3.org/1999/xlink" x="0px" y="0px"
	 viewBox="0 0 512 512" style="enable-background:new 0 0 512 512;" xml:space="preserve">
<style type="text/css">
	.st0{fill:#FFB31C;}
	.st1{fill:#FFFFFF;}
	.st2{fill:#FFC224;}
	.st3{fill:#FFBD1F;}
	.st4{fill:#FFD133;}
	.st5{fill:#FFD638;}
	.st6{fill:#FFE36E;}
	.st7{fill:#FFB81C;}
	.st8{fill:#FBA91C;}
	.st9{fill:#FFAE1C;}
</style>
<g>
	<g>
		<path class="st0" d="M256,74.5c-66.1,0-119.6,63.5-119.6,141.8c0,78.3,106.4,275.6,119.6,275.6c13.2,0,119.6-197.3,119.6-275.6
			C375.6,137.9,322.1,74.5,256,74.5z"/>
	</g>
	<g>
		<ellipse class="st0" cx="256" cy="211.8" rx="191.8" ry="191.8"/>
		<path class="st0" d="M256,411.7c-110.3,0-200-89.7-200-200c0-110.3,89.7-200,200-200s200,89.7,200,200
			C456,322.1,366.3,411.7,256,411.7z M256,28.2c-101.3,0-183.7,82.4-183.7,183.6c0,101.3,82.4,183.6,183.7,183.6
			s183.7-82.4,183.7-183.6C439.7,110.5,357.3,28.2,256,28.2z"/>
	</g>
	<g>
		<path class="st1" d="M400.7,253.5l-0.1-20.8v-64.3v-9.5v-0.1c0.1-3.1-0.8-6.3-2.9-9.2c-0.7-1-1.5-2-2.2-2.9
			c-35.8-46.4-104.1-61.2-124.4-63.9c-3.8-0.5-7.8-1.1-11.6,0.6l-2.6,1.2c-1.1,0.5-2.1,1.1-3.1,1.8c-4.2,2.8-12.1,8.5-18.4,17.5
			c-1.8,2.5-11.7,10.9-14.1,12.9c-0.8,0.6-1.4,1.2-1.8,1.4c0,0-30.9,23.6-62.2,50.3c-0.8,0.6-1.1,1.7-0.9,2.7
			c0.2,0.6,0.2,1.3,0.2,2.1c0,2-0.5,4.2-1.8,6c-0.8,0.8-1.7,1.6-2.6,2.3c-3.3,1.9-6,2.8-8.6,2.6c-0.8-0.1-1.5-0.2-2.2-0.4
			c-0.8-0.2-1.6,0-2.2,0.5c-9.9,8.8-19.2,17.5-26.8,25.5l-0.2,0.1c-0.7,0.5-1.1,1.3-1.1,2.1v0.2v9.5v42c0.1,0.1,0.1,0.1,0.2,0.1
			c0.8,0.4,1.5,0.9,2.1,1.4c0.1,0.1,0.3,0.3,0.5,0.4c2.8,2.4,4.7,5.8,5.2,9.7c0,0,0,0.1,0,0.1c0.1,0.5,0.1,1.1,0.1,1.6
			c0,0.6,0,1.2-0.1,1.8c0,0,0,0,0,0.1c-0.5,4.2-2.8,7.8-6,10.2c-0.1,0.1-0.2,0.1-0.2,0.2c-0.5,0.4-1.1,0.7-1.7,1v2.5v0.1v10.4v0.5
			c0,1.4,1.2,2.8,2.9,2.7c37-2.9,177.4-14.6,274.4-32.1c7.3-1.3,11.9-7.5,12.2-14v-5.9v-0.3C400.7,253.7,400.7,253.5,400.7,253.5z"
			/>
		<path class="st1" d="M114,320.7c-4.2,0-8.4-1.6-11.5-4.5c-3.4-3.2-5.4-7.7-5.4-12.3v-13.6c0-5.2,2.9-10.1,7.5-12.5
			c0.1,0,0.1-0.1,0.2-0.1c0,0,0.3-0.2,0.3-0.5l0.6,0.1l13.6-0.2l-14.1,0c0,0,0-0.1,0-0.1c0,0,0,0,0,0c0-0.2-0.1-0.3-0.3-0.5
			c-0.1-0.1-0.2-0.1-0.2-0.2c-0.3-0.2-0.5-0.3-0.8-0.5c-0.9-0.6-1.8-1.2-2.5-2c-2.7-2.7-4.2-6.3-4.2-10v-51.6c0-5,2.3-9.8,6.1-12.9
			c7-7.3,15.7-15.5,26.6-25.3c3.5-3.1,8-4.6,12.5-4.2c0.3-4.6,2.4-9,6-12c31.2-26.5,62.4-50.5,62.8-50.7c0.1-0.1,0.3-0.2,0.4-0.3
			c0.2-0.2,0.5-0.4,0.8-0.7c0.1-0.1,0.2-0.1,0.3-0.2c3.2-2.6,9.9-8.4,11.6-10.3c5.5-7.9,13.1-15.2,22-20.9c1.4-0.9,2.9-1.8,4.5-2.6
			c0.1,0,0.2-0.1,0.2-0.1l2.6-1.2c0,0,0.1,0,0.1,0c7.3-3.4,14.2-2.5,18.7-1.9l0.6,0.1c14,1.8,37,7.1,59.9,16.5
			c32,13.1,56.9,30.8,73.8,52.7c1,1.2,1.8,2.3,2.6,3.4c3.8,5.2,5.8,11.4,5.6,17.8v73.6l0.1,20.8c0,0,0,0.1,0,0.1
			c0,0.4,0,0.8-0.1,1.3v5.6c0,0.2,0,0.3,0,0.5c-0.5,13.8-10.3,25-23.8,27.4c-100,18.1-247.3,30.1-275.8,32.3c0,0-0.1,0-0.1,0
			C114.7,320.7,114.3,320.7,114,320.7z M133.2,280.4C133.2,280.4,133.2,280.4,133.2,280.4c0,0.1,0,0.2,0,0.2
			c-0.5,3.7-1.6,7.3-3.4,10.5c48.9-4.1,170.4-15,256.2-30.6c0.4-0.1,0.5-0.3,0.5-0.5v-5.8c0-0.4,0-0.8,0.1-1.3l-0.1-20.3v-73.8
			c0-0.2,0-0.4,0-0.6c0,0,0-0.1-0.1-0.3c0,0-0.1-0.1-0.1-0.1c-0.5-0.7-1.1-1.5-1.8-2.4c-0.1-0.1-0.1-0.1-0.2-0.2
			c-13.8-17.9-34.8-32.7-62.2-43.9c-26.3-10.8-48.6-14-52.8-14.6l-0.6-0.1c-1.1-0.1-2.7-0.3-3.5-0.3l-2,1c-0.6,0.3-1.2,0.6-1.7,0.9
			c-5.9,3.8-10.9,8.6-14.4,13.7c-3.4,4.8-15.3,14.6-16.7,15.7c-1,0.9-1.8,1.5-2.4,1.9c-2.7,2.1-29.5,22.7-57.2,46.1
			c-0.4,4.5-1.9,8.6-4.5,12c-0.4,0.6-0.9,1.1-1.4,1.6c-1.1,1.1-2.3,2.1-3.7,3.3c-0.6,0.5-1.3,1-2,1.4c-3.4,1.9-8.4,4.3-14.4,4.4
			c-7.7,7-14.1,13.1-19.5,18.5v40c4.4,4.6,7.1,10.4,7.8,16.7c0,0,0,0.1,0,0.1c0,0,0,0.1,0,0.1c0.1,1,0.2,2.1,0.2,3.1
			C133.4,278.2,133.4,279.3,133.2,280.4z M101.5,274C101.5,274,101.5,274,101.5,274C101.5,274,101.5,274,101.5,274z M101.5,273.9
			C101.5,274,101.5,274,101.5,273.9C101.5,274,101.5,274,101.5,273.9z M101.5,273.9C101.5,273.9,101.5,273.9,101.5,273.9
			C101.5,273.9,101.5,273.9,101.5,273.9z M386.6,253.3c0,0,0,0.6,0,0.2l0-0.1C386.6,253.3,386.6,253.3,386.6,253.3z M386.6,253.4
			L386.6,253.4L386.6,253.4z M386.6,253.2c0,0.2,0,0.2,0,0.3V253.2z M148.8,195C148.8,195,148.7,195,148.8,195
			C148.7,195,148.8,195,148.8,195z M166.7,179.3C166.7,179.3,166.7,179.3,166.7,179.3C166.7,179.3,166.7,179.3,166.7,179.3z
			 M142.9,175C142.9,175,142.9,175,142.9,175C142.9,175,142.9,175,142.9,175z M211.9,106.5c-0.1,0-0.1,0.1-0.2,0.2
			C211.7,106.6,211.8,106.6,211.9,106.5z M265.1,96.5L265.1,96.5L265.1,96.5z"/>
	</g>
	<g>
		<g>
			<g>
				<g>
					<path class="st2" d="M400.7,250v10.4c-0.2,6.6-4.9,12.7-12.1,14c-97,17.5-237.4,29.2-274.4,32.1c-1.7,0.1-2.9-1.3-2.9-2.7
						v-13.6c0-0.1,0-0.2,0-0.4v0.4c4.8-2.5,8-7.5,8-13.2c0-4.6-2.1-8.6-5.3-11.4c-1.6-1.3-2.5-3.4-2.5-5.5
						c0.2-18.5,0.5-38.8,0.9-39.1l150.7-80.2c3.1-2.3,6.9-3.3,10.7-2.8c20.7,2.7,88.9-26.2,124.1,22.5c1.8,2.5,2.7,68,2.8,85.3
						C400.7,248.2,400.7,249.7,400.7,250z"/>
					<path class="st2" d="M400.7,158.8v90.6c-0.2,6.6-4.9,12.7-12.1,14c-97,17.5-237.5,29.2-274.4,32.1c-1.8,0.1-2.9-1.3-2.9-2.7
						v-0.1c0-1.5,0.8-2.9,1.9-3.8c3.7-2.7,6.1-7.1,6.1-12c0-5.7-3.2-10.6-7.9-13.1c-0.1-0.1-0.1-0.1-0.2-0.1v-51.6
						c0-0.8,0.4-1.5,1.1-2.1L263,129.9c3.1-2.3,6.9-3.3,10.7-2.8c20.7,2.7,88.9-26.2,124.1,22.5
						C399.9,152.5,400.8,155.7,400.7,158.8z"/>
					<g>
						<path class="st3" d="M387.8,166.8c-65.2,11.8-147.7,24.2-207.3,34.5c-29.1,5-54.3,12.7-66.4,13.7c-1.8,0.1-2.9-1.3-2.9-2.7
							v9.5c0,1.4,1.1,2.8,2.9,2.7c36.9-2.9,177.4-24.5,274.4-42.1c7.3-1.3,11.9-7.5,12.1-14v-9.5
							C400.4,165.5,395.1,165.5,387.8,166.8z"/>
					</g>
					<path class="st4" d="M400.7,158.8c-0.1,4-2.5,6.9-6.3,7.9c-5,1.3-8.3,2.4-12,4.3c-7.2,3.6-10.1,4.7-18.5,6
						c-165,22.4-208.8,31.5-249.7,37.8c-1.7,0.1-2.9-1.3-2.9-2.7c0-0.8,1.1-2.1,1.1-2.1c7.6-8,17-16.8,27-25.7
						c0.6-0.5,1.4-0.8,2.2-0.5c0.7,0.2,1.4,0.4,2.2,0.4c2.6,0.2,5.3-0.7,8.6-2.6c0.9-0.8,1.8-1.5,2.6-2.3c1.4-1.8,1.8-4,1.8-6
						c0-0.8-0.1-1.5-0.2-2.1c-0.2-1,0.2-2.1,0.9-2.7c31.3-26.6,62.2-50.3,62.2-50.3c0.4-0.2,1-0.8,1.8-1.4
						c2.4-1.9,12.3-10.3,14.1-12.9c6.2-9,14.1-14.8,18.4-17.5c1-0.6,2.1-1.2,3.1-1.8l2.6-1.2c3.8-1.8,7.8-1.1,11.6-0.6
						c20.7,2.7,91.4,18.1,126.6,66.8C399.9,152.5,400.8,155.7,400.7,158.8z"/>
				</g>
				<path class="st5" d="M256,90.1c3.2-2.3,9.5-7.7,16.4-4.8c6.9,2.8,17.3,1.6,22.2,4.8c4.8,3.2,3.2,3.2,17.7,7.7
					c14.5,4.5,35.5,9.7,44.3,18.5s22.6,17.7,25,20.5s11.7,12.5,12.5,15.3c0.8,2.8,0,9.7-8,10.1c-8,0.4-12.1,4.5-15.3,3.2
					c-3.2-1.2-2.8-4.8-6-8.5c-3.2-3.6-4.4-1.8-11.3-8.4c-6.9-6.5-8.9-9.7-8.9-9.7s-6.5-5.2-9.3-5.6c-2.8-0.4-5.6,3.2-10.1-2.8
					c-4.4-6-12.9-12.1-14.9-12.5c-2-0.4-8.5-2.8-11.7-4c-3.2-1.2-11.3-6.5-11.3-6.5s-8.5-1.2-11.3-2c-2.8-0.8-6.5-1.2-10.5-2.4
					c-4-1.2-5.8-2.8-9.5-3.6C252.2,98.6,252.7,92.5,256,90.1z"/>
				<g>
					<path class="st6" d="M121.1,212.3c9.9-1.6,19.8-3.4,29.8-5.2c9.9-1.7,19.9-3.4,29.8-5c19.9-3.3,39.9-6.4,59.8-9.4
						c39-5.8,78.2-11.2,117.3-16.3c2-0.2,6.3-0.2,6,0.7c0.6,0.8-3.6,2-5.6,2.3c-39.1,5.6-78.1,11.2-117.2,17.1
						c-20,3-39.9,6-59.8,9.2l-29.9,4.8c-10,1.6-19.9,3.3-29.9,4.8c-2,0.3-7.7,0.5-7.3-0.4C113.6,214.2,119.1,212.7,121.1,212.3z"/>
				</g>
				<path class="st6" d="M155.9,181.8c0,4.1-10.3,5.3-13.2,7.6c-2.9,2.3-7.6,6.5-7.6,6.5c-4.1,4.7-9.1,8.8-11.7,10.9
					c-2.6,2.1,0-3.5,0-3.5c1.8-2.2,10.4-10,18.4-17c0.6-0.5,2.8-0.8,3.5-0.8C147.4,185.2,153,183.4,155.9,181.8z"/>
				<path class="st6" d="M239,108c-2.8,2.6-4.9,5.6-4.9,5.6c-3.5,3.2-4.4,4.4-6.2,5.6c-1.8,1.2-2.1,1.5-4.4,3.2s0.9-0.9-5,4.7
					s-7,6.5-7,6.5l-5.6,4.1c0,0-3.3,2.2-5.6,3.8c-6.2,4.4-7,6.1-8.8,7.2c-1.8,1.1-5.3,5.2-5.3,5.2l-7.3,5c0,0-5.3,3.2-7,5
					c-1.8,1.8-7.9,5.9-7.9,5.9s-3.2,12-10.2,15c1.4-1.8,5.9-7,5.6-13.4c6.9-5.8,18.8-16.1,21.3-18.4c3.2-2.9,24.4-19.1,24.4-19.1
					s15.6-13,20.6-16.5C230.6,113.8,241.9,105.3,239,108z"/>
				<path class="st5" d="M209.3,148.6c0.1-0.3,0.5-0.5,0.8-0.7c4.6-4.2,12.2-11.5,18.8-11.7c7-0.3,9.2,0.3,18.2-2.5
					c1.8-0.6,3.5-1.1,4.9-1.5c4.1-1.2,8.6-0.9,12.4,0.9c2.4,1.1,5.7,2,9.8,1.3c8.7-1.4,9,1.4,5.9,3.9c-3.1,2.5,0,3.6-6.5,6.2
					c-6.5,2.5-7.9,3.3-12,5.3c-4.2,1.9-11.5,5.9-11.5,5.9s-0.6,1.9-6.5,0.3c-5.9-1.7-5-2.8-9.5-3.9s-8.4,1.1-13.7,1.1
					C215.2,153.3,208.5,151.6,209.3,148.6z"/>
				<path class="st5" d="M197.2,179c-8.2-6.7-3.9-11.6,7.2-13.2c11.1-1.6,11.6,3.6,22.1,0c10.6-3.6,13.9,0.2,12.5,3.6
					c-1.4,3.3-2.9,6.7-8.2,9.6c-5.3,2.9-8,8.2-21.6,9.6C195.7,190,197.2,179,197.2,179z"/>
				<path class="st5" d="M159.6,191.7c-5.3-1.2,5.8-8.4,12-11.8c6.3-3.3,3.8,1.9,9.1,4.8c5.3,2.9,3.3,4.3,0,6.9
					C177.5,194.3,159.6,191.7,159.6,191.7z"/>
				<path class="st5" d="M269.8,173.2c-4.3-7.5,8.2-14.3,8.2-14.3s16.8-8.8,25-7.3s11.6,4.6,17.3,7.3c5.8,2.8,15.8,8,3.6,10.9
					c-12.2,2.9-19,3.3-19,3.3S271.7,176.5,269.8,173.2z"/>
				<path class="st5" d="M253.4,121.1c-8.1-2.3-4.9-7.6,2.6-8.5c7.5-0.9,4.3,0.9,12.9,3.9c8.6,2.9,7.6,5.3,3.3,6.7
					C267.9,124.6,253.4,121.1,253.4,121.1z"/>
				<path class="st3" d="M388.5,182.4c0,0,3.8-2.4,5.8,1.7c2,4.1,1.4,19.5,1.4,19.5s0.6,35.3,0.1,48.7c-0.5,13.4-4.3,10.4-4.3,10.4
					s7.4,4.4,8.3-1.9c0.9-6.3,0.9-7.3,0.9-7.3l-0.2-83.2l-9.9,5.9L388.5,182.4z"/>
				<path class="st6" d="M268.9,91.1c-5.3-0.6-2.8-4.6,3.5-5.9c6.3-1.2,16.6,1.7,20.2,3.9c3.6,2.2,29.8,8.3,37.1,12.3
					c7.2,4,10.4,5.8,7.4,6c-3,0.3-7.4-1.7-7.4-1.7s-10.2-2.3-13.5-4.3s-12.4-3.6-17.5-5c-5.1-1.3-10.7-3.2-16.7-3.2
					C276,93.1,268.9,91.1,268.9,91.1z"/>
				<path class="st6" d="M359.3,124.3c-5.1-2.9-9.8-7.1-11.3-9.4c-1.5-2.3,2.2-4,5.5-1.3c3.2,2.7,5.3,4.6,9.7,7.5
					c4.4,2.8,5.9,3.2,5,5.3C367.2,128.6,363.4,126.7,359.3,124.3z"/>
				<path class="st3" d="M132.6,244.4c-5.2-3.1,1.1-8.6,5.7-8.6s5.7,1.1,13.7,0s8.5-4.6,19.1-4.6c10.6,0,19.2,3.4,12.9,4.6
					c-6.3,1.2-6.9,4-12.9,4.3c-5.9,0.3-9.4,5.5-17.4,4.3C145.8,243.3,138.3,247.9,132.6,244.4z"/>
				<path class="st3" d="M209.2,249c-10.5,0.9-1.7-6.9,4-8c5.7-1.1,22.4-9.2,20.6-2.5C233.9,238.5,229.8,247.3,209.2,249z"/>
				<path class="st3" d="M275.4,231.3c-10.7-1.8-0.2-11.3,6.5-12c6.8-0.6,11.7-3.5,20.1-4.4c8.5-0.9,10.7,1,3.3,4.4
					c-7.5,3.3-5.7,1.7-11.4,6C288.2,229.6,285.5,233,275.4,231.3z"/>
				<path class="st3" d="M136,280.5c-12-3,2.3-11.4,2.3-11.4h22.9c-4,9.7,1.7,10.3-7.5,11.4C144.7,281.6,145.2,282.8,136,280.5z"/>
				<path class="st3" d="M204.3,271.9c11.8-0.9,24.4,0.2,11.8,3.5c-12.6,3.3-13.1,9.4-18.8,6.4C191.6,278.7,201.2,272.2,204.3,271.9
					z"/>
				<path class="st3" d="M180.8,259.9c-8.6-1,0-5.3,0-5.3s18.8-3.8,18.2-1.5C198.4,255.3,190.6,261,180.8,259.9z"/>
				<path class="st3" d="M256,264.2c-6.3-3.4-9.3-8.3,0-8c9.3,0.3,11.2-1.5,14.8,0c3.6,1.5,5.5,8.3,0,8
					C265.3,263.9,259.5,266.1,256,264.2z"/>
				<path class="st3" d="M245.6,219.3c-5.3-1.6-2.5-6.3,7.7-6.9c10.3-0.6,14,3.4,8.7,4.9C256.7,218.7,248.3,220.1,245.6,219.3z"/>
				<path class="st3" d="M299.3,255.5c-7.7-0.8-8.9-8,0-9.9c8.9-1.9,22.7-9.8,21-3.2C318.5,249,306.9,256.4,299.3,255.5z"/>
				<path class="st3" d="M287.6,269c-6.6-2.2,3.8-5.1,11.6-4.9c7.8,0.3,19.1,3.7,10.6,4.9C301.3,270.2,294.4,271.3,287.6,269z"/>
				<path class="st3" d="M344.8,212.4c-7.5-3.2-3-8,2.8-8.5c5.8-0.6,15.3-8,16.3-2.3C364.8,207.3,348,213.7,344.8,212.4z"/>
				<path class="st3" d="M347.6,233.5c-7.4-0.6,4.2-10.7,10.4-9.1c6.2,1.6,17.4,1.5,10.4,4.5c-7,2.9-6.3,2.3-10.4,4.6
					C354,235.8,347.6,233.5,347.6,233.5z"/>
				<path class="st3" d="M345.2,260c-12-0.5-7.6-5.6,0-7.7c7.6-2.1,12.9-1.3,12.8,0C358,253.6,348.5,260.2,345.2,260z"/>
				<path class="st3" d="M378,249.1c-3.6,1.6-3.3-3.4-2.4-6.6c1.1-3.3,2.9-4.8,5.2-2.5C380.8,239.9,389.4,244,378,249.1z"/>
				<path class="st3" d="M374.4,217.2c-2.2-0.2-0.4-4,1.8-5.3c1-0.6,2.1-0.7,3,0.4C383.7,218.1,376.6,217.4,374.4,217.2z"/>
				<path class="st7" d="M400.7,254.6v5.9c-0.2,6.6-4.9,12.7-12.1,14c-97,17.5-237.4,29.2-274.4,32.1c-1.7,0.1-2.9-1.3-2.9-2.7v-0.5
					c5.5,1.1,14.3,0.1,22.2-0.6c9-0.8,62.3-6.8,68.2-7.2c5.9-0.3,119.2-12.9,125-13.8c5.9-1,56.7-11.2,61.7-10.2
					c5,1,11.6-5.3,11.2-10.8C399.6,258.6,399.9,256.3,400.7,254.6z"/>
				<path class="st2" d="M117.2,224.5c1.6-2.1,4.6-2.4,9.3-3.1c4.6-0.6,7.3-1.1,13.6-1.9c6.3-0.8,8.9-0.2,8.9-0.2l9.3-1.9l5.9-0.1
					l16.6-4.7c0,0,3.2,0.7,10.5,0c7.3-0.7,7.7-0.5,15.8-1c8.1-0.5,6.1-2.2,12-2.9c5.9-0.7,22.7-2.5,26.4-2.6
					c3.8-0.2,21.1-6.2,25.2-6.6s39.7-7.2,46.8-6.5c7.2,0.6,30.8-6.9,34.7-7c4-0.1,24.7-3.8,24.7-3.8s14.6-0.6,17.6,0
					c3.1,0.6-4.5,3.8-4.5,3.8s-244.3,42.3-259.4,43.6C115.5,230.7,117.2,224.5,117.2,224.5z"/>
				<path class="st2" d="M117,299.5c-3-1.9-4.5-3.7,0-3.9s8.2-0.8,11.1-1c2.9-0.2,9.8-1.7,14.9-2.2c5.2-0.5,11.5-0.5,11.5-0.5
					s4.6-0.2,11.3,0.2c6.7,0.5,17-0.5,17-0.5l10-2.2c0,0,3.3,0,7-0.8c3.7-0.8,8.5-1.7,8.5-1.7s32.5-4.5,37.2-4.5
					c4.8,0.1,5,0.2,9.2,0c4.2-0.2,4.9,1.4,9.7,0s8.5-4,11.9-3.5c3.4,0.6,5.9,1.2,10,0c4.2-1.2,4.6-0.8,9.8-1.7s12.2-1.6,12.2-1.6
					s21.8-4.7,22.5-4.7c6.9,0.1,15.8,0.7,22.5,0c6.7-0.7,18.5-4,18.5-4s9,0,13.6-0.9c4.6-0.9,8.7-0.6,5.8,0
					c-2.9,0.6-4.4,2.6-9.3,3.2c-4.9,0.6-13,3.1-18.1,3.1c-5.1-0.1-7.2,1-10.4,1.2c-3.2,0.2-98.4,13.9-103.3,14.1s-58.2,6.1-62.2,6.1
					c-3.9,0-58.5,4.6-62.4,5.6S117,299.5,117,299.5z"/>
			</g>
			<g>
				<path class="st2" d="M203.4,176.7c-7.5,1.8-12.5,0.6-12.5,0.6c-1.7-0.5-3.1-1.2-4.1-2.1c-5-4.1-2.6-11.4,4.1-14.6
					c8.1-3.8,18.5-1.3,21,3.2c0.5,0.9,0.8,2,0.9,3.1C213,170.7,210.2,175,203.4,176.7z"/>
				<path class="st7" d="M212.7,166.9c-4.5-5.3-12.3-3.8-18.2-1.2c-4.5,1.9-8.6,6.1-7.8,9.6c-5-4.1-2.6-11.4,4.1-14.6
					c8.1-3.8,18.5-1.3,21,3.2C212.3,164.8,212.7,165.8,212.7,166.9z"/>
			</g>
			<g>
				<path class="st2" d="M293.2,177.3c-9.4,0.8-15.3-1.6-15.3-1.6c-2-0.9-3.5-2.1-4.6-3.3c-5.3-5.9-1-14.4,7.8-17
					c10.6-3.1,22.7,2,24.9,8c0.5,1.2,0.6,2.5,0.5,3.9C306.1,171.9,301.8,176.6,293.2,177.3z"/>
				<path class="st7" d="M306.5,167.2c-4.3-7.3-14.1-7-21.8-5c-5.8,1.5-11.7,5.7-11.3,10.2c-5.3-5.9-1-14.4,7.8-17
					c10.6-3.1,22.7,2,24.9,8C306.4,164.6,306.6,165.9,306.5,167.2z"/>
			</g>
			<g>
				<path class="st2" d="M268.4,116.6c-6.1,1.9-10.3,1.1-10.3,1.1c-1.5-0.4-2.6-0.9-3.5-1.5c-4.3-3.2-2.8-9.4,2.7-12.3
					c6.6-3.6,15.3-2,17.6,1.7c0.5,0.8,0.8,1.6,0.9,2.5C276.1,111.3,274,114.9,268.4,116.6z"/>
				<path class="st7" d="M275.8,108.1c-3.9-4.2-10.4-2.6-15.2-0.2c-3.6,1.8-6.9,5.5-6,8.3c-4.3-3.2-2.8-9.4,2.7-12.3
					c6.6-3.6,15.3-2,17.6,1.7C275.4,106.3,275.7,107.2,275.8,108.1z"/>
			</g>
			<g>
				<path class="st2" d="M355.7,158.5c-6,1.2-10.1,0.1-10.1,0.1c-1.3-0.5-2.4-1.1-3.2-1.8c-3.9-3.4-1.8-9.2,3.8-11.4
					c6.7-2.8,15-0.4,16.8,3.3c0.4,0.8,0.6,1.6,0.6,2.5C363.6,154.2,361.2,157.5,355.7,158.5z"/>
				<path class="st7" d="M363.6,151.2c-3.4-4.3-9.7-3.5-14.6-1.6c-3.7,1.3-7.2,4.5-6.6,7.3c-3.9-3.4-1.8-9.2,3.8-11.4
					c6.7-2.8,15-0.4,16.8,3.3C363.4,149.5,363.6,150.3,363.6,151.2z"/>
			</g>
			<g>
				<path class="st0" d="M255.5,259.9c-4.6,6.4-13.7,5.5-17.7,2.6c-1.9-1.4-3.5-3.1-4.6-5c-3-5-3.1-11.3,2.6-15.7
					c7.8-6.2,18.7-7.3,22.3,0c0.2,0.4,0.4,0.8,0.5,1.1C261.5,249.6,259.9,253.8,255.5,259.9z"/>
				<path class="st8" d="M258.1,241.8c0.2,0.4,0.4,0.8,0.5,1.1c-3.4-1.6-8-2.5-13-0.8c-8.2,2.9-12.4,9.1-12.4,15.3
					c-3-5-3.1-11.3,2.6-15.7C243.6,235.7,254.5,234.5,258.1,241.8z"/>
			</g>
			<g>
				<path class="st0" d="M164.7,240.4c-4,5.6-12.9,8.3-18.1,4.9c-2.2-1.5-3.9-3.1-5.2-4.9l0,0l0,0c-0.4-0.6-0.8-1.2-1.1-1.9
					c-3.1-6.3-1-13.6,3.6-17.8c6.4-5.9,17-5.5,21.9,1.6c0.9,1.2,1.5,2.5,1.9,3.6C169.8,231.4,167.8,236.2,164.7,240.4z"/>
				<path class="st8" d="M167.7,225.9c-3.2-1.6-9.2-3.5-15.8-2.2c-7.8,1.6-13.4,9.6-11.6,14.7c-3.1-6.3-1-13.6,3.6-17.8
					c6.4-5.9,17-5.5,21.9,1.6C166.7,223.5,167.3,224.7,167.7,225.9z"/>
			</g>
			<g>
				<path class="st0" d="M377.4,259.4c-3.3,4.5-10.4,6.8-14.7,4c-1.8-1.2-3.2-2.5-4.2-4l0,0l0,0c-0.4-0.5-0.6-1-0.9-1.5
					c-2.5-5.2-0.8-11,2.9-14.4c5.2-4.8,13.8-4.5,17.8,1.3c0.7,1,1.2,2,1.6,2.9C381.5,252,379.8,255.9,377.4,259.4z"/>
				<path class="st8" d="M379.8,247.6c-2.6-1.3-7.5-2.8-12.9-1.8c-6.3,1.3-10.9,7.7-9.4,12c-2.5-5.2-0.8-11,2.9-14.4
					c5.2-4.8,13.8-4.5,17.8,1.3C378.9,245.6,379.4,246.6,379.8,247.6z"/>
			</g>
			<g>
				<path class="st0" d="M326.4,222c0,9.7-12,15.1-20.5,9.7c-1.7-1.1-2.9-3.1-3.5-5.5c-1.4-5.8,0.8-13.6,7.6-15.9
					c5.7-2,11.3,0.6,14.2,4.9C325.6,217.2,326.4,219.6,326.4,222z"/>
				<path class="st8" d="M324.3,215.3c-2-0.5-5-0.3-10.6,0c-6.4,0.4-10.2,5.9-11.2,11c-1.4-5.8,0.8-13.6,7.6-15.9
					C315.8,208.4,321.3,211,324.3,215.3z"/>
			</g>
			<g>
				<path class="st0" d="M193.5,274.2c0,7.5-9.3,11.8-16,7.5c-1.4-0.9-2.2-2.4-2.7-4.2c-1.1-4.5,0.6-10.6,5.9-12.4
					c4.5-1.5,8.7,0.5,11,3.8C192.9,270.5,193.5,272.3,193.5,274.2z"/>
				<path class="st8" d="M191.8,268.9c-1.5-0.4-3.9-0.2-8.3,0c-5,0.3-7.9,4.6-8.7,8.6c-1.1-4.5,0.6-10.6,5.9-12.4
					C185.3,263.5,189.6,265.6,191.8,268.9z"/>
			</g>
		</g>
		<path class="st9" d="M111.3,289.9v0.4l0,0C111.3,290.2,111.3,290.1,111.3,289.9z"/>
	</g>
</g>
</svg>
